<?xml version="1.0" standalone="no"?>
<!DOCTYPE svg PUBLIC "-//W3C//DTD SVG 20010904//EN"
 "http://www.w3.org/TR/2001/REC-SVG-20010904/DTD/svg10.dtd">
<svg version="1.0" xmlns="http://www.w3.org/2000/svg"
 width="225.000000pt" height="225.000000pt" viewBox="0 0 225.000000 225.000000"
 preserveAspectRatio="xMidYMid meet">

<g transform="translate(0.000000,225.000000) scale(0.100000,-0.100000)"
fill="#000000" stroke="none">
<path d="M0 1125 l0 -1125 1125 0 1125 1 0 1124 0 1125 -1125 0 -1125 0 0
-1125z m1204 725 c50 -27 62 -29 111 -24 70 9 104 -6 142 -60 26 -36 39 -46
82 -56 67 -16 98 -42 111 -93 17 -69 27 -85 68 -111 45 -28 65 -68 60 -122 -3
-35 -6 -39 -34 -42 -29 -3 -32 0 -57 65 -68 172 -226 309 -412 358 -69 18
-201 20 -277 4 -165 -34 -328 -161 -406 -318 -23 -46 -42 -89 -42 -95 0 -6
-13 -17 -29 -23 -26 -9 -30 -8 -35 11 -3 11 -6 40 -6 63 0 38 6 48 58 100 47
46 60 66 65 100 8 46 49 89 95 99 47 9 88 34 106 65 30 50 58 63 130 56 57 -5
68 -3 117 23 68 37 83 37 153 0z m98 -110 c146 -45 286 -166 352 -303 42 -87
44 -97 13 -97 -20 0 -31 14 -62 76 -89 181 -272 294 -475 294 -201 0 -387
-115 -473 -291 -26 -54 -37 -67 -59 -71 -36 -6 -36 7 3 85 89 181 253 300 454
331 55 8 183 -4 247 -24z m-76 -75 c-3 -8 -9 -22 -12 -30 -3 -8 -1 -15 5 -15
6 0 11 -9 11 -20 0 -22 -15 -27 -26 -9 -4 8 -14 -1 -25 -23 -15 -29 -22 -35
-44 -31 -15 3 -25 1 -25 -6 0 -16 -42 -13 -68 5 -12 8 -22 22 -22 30 0 16 26
19 35 4 3 -5 15 -10 26 -10 15 0 20 6 17 23 -3 19 -8 22 -40 19 -21 -2 -38 -1
-38 1 0 3 7 21 15 41 l15 36 91 0 c77 0 90 -2 85 -15z m-319 -45 c10 0 13 -6
9 -16 -3 -9 -6 -19 -6 -22 0 -4 -11 -7 -25 -7 -16 0 -23 5 -20 13 2 6 0 12 -5
12 -6 0 -10 5 -10 10 0 6 7 10 15 10 8 0 15 6 16 13 0 10 2 10 6 0 2 -7 12
-13 20 -13z m490 0 c10 0 13 -6 9 -16 -3 -9 -6 -19 -6 -22 0 -4 -11 -7 -25 -7
-16 0 -23 5 -20 13 2 6 0 12 -5 12 -6 0 -10 5 -10 10 0 6 7 10 15 10 8 0 15 6
16 13 0 10 2 10 6 0 2 -7 12 -13 20 -13z m-597 -71 c0 -5 5 -7 12 -3 8 5 9 2
5 -10 -4 -10 -7 -21 -7 -26 0 -4 -8 -7 -17 -6 -23 1 -33 26 -19 43 14 15 26
16 26 2z m684 -2 c16 -15 7 -42 -14 -42 -20 0 -30 26 -16 42 14 16 15 16 30 0z
m-88 -42 c14 -11 15 -15 4 -14 -35 3 -83 -1 -77 -8 4 -3 33 -5 65 -4 44 1 62
-2 72 -15 13 -15 9 -16 -50 -11 -42 4 -58 3 -45 -3 11 -5 45 -9 76 -9 50 -1
59 -4 75 -28 9 -15 26 -36 36 -47 10 -11 18 -23 18 -26 0 -3 -37 1 -83 11 -46
9 -135 22 -198 28 -88 8 -117 15 -128 28 -13 17 -13 17 -8 1 6 -17 -4 -18
-118 -18 -83 0 -158 -7 -226 -20 -57 -11 -104 -18 -107 -16 -2 3 5 13 15 23
11 11 22 27 26 36 5 13 19 17 54 17 26 0 55 5 63 11 11 8 2 9 -34 4 -38 -5
-47 -4 -44 7 3 8 24 14 51 16 26 2 47 7 47 11 0 5 -12 6 -27 3 -25 -5 -27 -4
-14 12 12 15 29 16 130 11 64 -3 123 -8 131 -10 8 -3 60 2 115 9 134 19 158
19 181 1z m-659 -56 c-1 -11 -8 -18 -17 -16 -19 3 -31 30 -17 39 17 10 36 -2
34 -23z m826 2 c-2 -10 -11 -18 -18 -18 -19 0 -29 28 -14 38 19 11 37 0 32
-20z m-880 -87 c-7 -18 -33 -18 -33 -1 0 19 10 27 25 20 8 -2 11 -11 8 -19z
m927 0 c0 -15 -21 -15 -32 1 -8 11 12 26 24 19 4 -3 8 -12 8 -20z m-349 -37
c41 -27 58 -71 58 -152 1 -44 -5 -73 -21 -105 -21 -40 -28 -46 -73 -57 l-50
-11 85 -1 c92 -1 300 -17 338 -26 18 -4 25 -1 29 14 4 17 49 38 59 28 3 -2 0
-16 -5 -31 -7 -18 -7 -26 0 -26 5 0 15 14 20 30 9 24 17 30 39 30 32 0 35 -7
46 -92 l6 -58 57 0 56 -1 -36 -33 -36 -34 36 -36 36 -36 -53 0 c-29 0 -51 4
-48 8 2 4 -5 9 -17 9 -12 1 -23 7 -25 13 -2 6 -9 7 -15 2 -22 -16 -67 -32 -67
-23 0 4 12 13 27 20 25 11 26 14 10 22 -9 6 -23 7 -30 3 -6 -4 -3 2 7 14 16
18 16 22 4 22 -23 0 -35 -19 -43 -67 -9 -59 -52 -103 -99 -103 -31 0 -45 -9
-99 -64 l-62 -63 -60 8 c-68 9 -91 5 -122 -23 -37 -34 -90 -34 -157 2 -47 25
-66 30 -100 26 -23 -3 -31 -2 -18 2 13 4 22 11 20 17 -3 10 -6 11 -41 13 -10
1 -16 6 -13 10 3 5 -8 9 -25 10 -20 0 -27 -3 -23 -11 4 -7 -6 2 -23 18 -16 17
-28 35 -25 40 3 6 -1 5 -9 -2 -11 -9 -20 -8 -39 2 -14 8 -34 15 -45 15 -17 1
-18 2 -3 8 22 9 6 30 -51 66 -41 27 -44 27 -38 7 3 -12 2 -19 -3 -16 -4 2 -13
26 -21 52 l-12 48 -7 -35 -7 -35 -2 42 -1 42 -32 -10 c-47 -13 -48 -13 -48 25
0 19 -5 36 -10 38 -11 3 -3 117 10 137 11 19 59 -5 66 -34 3 -14 10 -25 15
-25 5 0 7 11 3 25 -5 22 -3 25 19 25 13 0 31 -9 38 -19 12 -17 21 -18 69 -10
30 4 145 11 255 15 150 6 191 10 165 17 -69 18 -100 71 -99 172 1 113 48 165
149 165 43 0 66 -6 91 -23z m-301 0 c13 -7 31 -30 39 -51 12 -32 12 -46 2 -90
-12 -47 -14 -84 -8 -146 2 -23 -2 -25 -40 -26 -52 -1 -59 3 -70 45 -13 51 -31
50 -35 -1 -2 -24 -6 -42 -10 -40 -5 1 -28 2 -53 2 l-45 0 0 153 c0 85 3 157 7
160 12 12 187 7 213 -6z m559 3 c73 -21 104 -85 81 -169 -15 -57 -47 -76 -137
-80 -6 -1 -13 -16 -15 -33 -3 -32 -4 -33 -53 -32 l-50 1 -3 162 -2 161 72 0
c40 0 88 -4 107 -10z m-811 -47 l3 -43 -60 0 c-32 0 -66 -3 -75 -6 -22 -8 -22
-96 -1 -114 21 -18 28 -7 29 43 l1 42 49 3 c32 2 52 -1 57 -10 11 -16 11 -149
1 -165 -11 -18 -169 -10 -208 10 -39 20 -59 67 -58 137 2 113 49 151 179 147
l80 -2 3 -42z m1125 31 c24 -5 27 -10 27 -46 l0 -41 -60 6 c-35 4 -60 3 -60
-3 0 -5 19 -10 43 -12 41 -3 42 -4 45 -43 l3 -41 -39 4 c-22 2 -43 -1 -46 -7
-5 -8 12 -11 54 -11 l61 0 -3 -42 c-3 -40 -5 -43 -33 -44 -16 0 -64 -2 -106
-4 -42 -2 -81 0 -88 4 -12 8 -16 277 -4 290 8 7 151 0 206 -10z m-1449 -21
c24 -79 56 -213 56 -237 0 -22 -4 -27 -16 -22 -9 3 -28 6 -44 6 -16 0 -36 7
-44 16 -23 22 -57 26 -77 8 -21 -19 -109 -10 -109 11 0 16 59 207 66 214 5 6
85 17 136 20 17 1 28 -5 32 -16z m1689 -4 c35 -9 38 -13 35 -42 -3 -32 -4 -32
-58 -32 l-55 0 -3 -42 c-3 -36 0 -43 15 -44 10 0 36 -1 58 -2 36 -2 40 -5 43
-31 2 -16 -2 -32 -10 -37 -7 -5 -50 -9 -95 -9 -71 0 -85 3 -102 21 -39 42 -39
171 0 210 22 22 108 26 172 8z m-1679 -446 l20 -27 -27 20 c-14 10 -27 22 -27
27 0 15 16 6 34 -20z m84 -15 c-3 -43 -2 -43 52 -70 30 -16 49 -28 42 -28 -7
0 -35 11 -62 25 -49 25 -50 26 -50 70 0 26 5 45 11 45 6 0 9 -17 7 -42z m-44
-43 c-4 -8 -10 -15 -15 -15 -5 0 -8 -3 -7 -7 3 -18 -16 -43 -33 -43 -28 0 -23
11 18 47 44 38 44 38 37 18z m251 -123 c-3 -3 -11 0 -18 7 -9 10 -8 11 6 5 10
-3 15 -9 12 -12z m138 -85 c6 -22 6 -22 -14 2 -22 27 -26 49 -5 32 8 -6 16
-22 19 -34z"/>
<path d="M1108 1862 c-14 -2 -32 -9 -38 -17 -9 -11 -5 -12 23 -6 18 5 43 4 56
-1 26 -9 37 -5 27 10 -8 13 -35 18 -68 14z"/>
<path d="M1340 1813 c14 -2 31 -12 37 -20 7 -9 16 -13 20 -10 3 4 15 0 25 -10
10 -9 18 -12 18 -6 0 21 -41 45 -82 48 -24 1 -32 1 -18 -2z"/>
<path d="M1087 1648 c-8 -5 -7 -8 6 -8 9 0 26 -14 36 -31 15 -25 19 -27 24
-12 2 10 8 25 11 34 6 13 0 18 -29 21 -19 2 -41 0 -48 -4z"/>
<path d="M1240 1475 l35 -13 -35 -2 -35 -2 30 -7 c30 -7 45 2 45 27 0 7 -14
12 -37 11 l-38 -1 35 -13z"/>
<path d="M958 1473 c18 -2 45 -2 60 0 15 2 0 4 -33 4 -33 0 -45 -2 -27 -4z"/>
<path d="M1096 1468 c3 -4 14 -8 25 -8 10 0 19 -5 19 -11 0 -6 -9 -9 -20 -6
-11 3 -20 1 -20 -4 0 -5 11 -9 25 -9 38 0 34 36 -4 42 -17 2 -28 1 -25 -4z"/>
<path d="M920 1442 c0 -4 17 -6 38 -4 64 6 69 10 15 11 -29 0 -53 -3 -53 -7z"/>
<path d="M901 1428 c-1 -16 10 -18 107 -17 59 0 100 3 92 6 -8 3 -18 11 -22
17 -5 7 -8 6 -8 -4 0 -13 -1 -13 -10 0 -6 10 -10 11 -10 3 0 -18 -136 -18
-143 0 -3 7 -6 5 -6 -5z"/>
<path d="M1209 1427 c5 -5 21 -7 37 -5 27 3 26 4 -8 9 -22 3 -34 1 -29 -4z"/>
<path d="M1354 1420 c1 -9 12 -16 26 -17 21 -1 21 -1 3 3 -12 3 -24 11 -26 17
-2 7 -3 5 -3 -3z"/>
<path d="M1390 1420 c14 -4 34 -8 45 -8 16 0 15 2 -5 8 -14 4 -34 8 -45 8 -16
0 -15 -2 5 -8z"/>
<path d="M783 1403 c15 -2 39 -2 55 0 15 2 2 4 -28 4 -30 0 -43 -2 -27 -4z"/>
<path d="M1198 1403 c12 -2 30 -2 40 0 9 3 -1 5 -23 4 -22 0 -30 -2 -17 -4z"/>
<path d="M1418 1393 c7 -3 16 -2 19 1 4 3 -2 6 -13 5 -11 0 -14 -3 -6 -6z"/>
<path d="M1480 1390 c-18 -12 -2 -12 25 0 13 6 15 9 5 9 -8 0 -22 -4 -30 -9z"/>
<path d="M1378 1383 c7 -3 16 -2 19 1 4 3 -2 6 -13 5 -11 0 -14 -3 -6 -6z"/>
<path d="M1139 1223 c-16 -41 -3 -110 22 -116 40 -11 62 50 43 121 -9 33 -51
30 -65 -5z"/>
<path d="M1124 949 c-4 -7 -3 -9 4 -5 5 3 13 0 15 -6 4 -9 6 -10 6 -1 1 17
-16 25 -25 12z"/>
<path d="M941 934 c0 -11 3 -14 6 -6 3 7 2 16 -1 19 -3 4 -6 -2 -5 -13z"/>
<path d="M1015 939 c-4 -6 -4 -13 -1 -16 3 -4 6 -1 6 6 0 7 5 9 12 5 7 -4 8
-3 4 4 -9 15 -13 15 -21 1z"/>
<path d="M1201 934 c0 -11 3 -14 6 -6 3 7 2 16 -1 19 -3 4 -6 -2 -5 -13z"/>
<path d="M1230 936 c0 -6 13 -12 30 -12 23 -1 26 1 17 11 -15 15 -47 15 -47 1z"/>
<path d="M1301 932 c0 -11 2 -12 6 -4 2 6 9 10 13 7 5 -3 11 -2 14 3 2 4 -4 9
-15 9 -12 1 -19 -4 -18 -15z"/>
<path d="M737 926 c-9 -23 -9 -23 7 -23 7 0 19 10 26 21 12 19 11 20 -2 8 -13
-10 -17 -10 -20 0 -3 8 -7 6 -11 -6z"/>
<path d="M810 927 c0 -10 8 -17 18 -17 9 0 13 4 7 8 -5 4 -13 11 -17 16 -5 5
-8 2 -8 -7z"/>
<path d="M1381 924 c0 -11 3 -14 6 -6 3 7 2 16 -1 19 -3 4 -6 -2 -5 -13z"/>
<path d="M680 912 c0 -11 8 -18 20 -18 11 0 20 1 20 1 0 0 -9 8 -20 18 -19 16
-20 16 -20 -1z"/>
<path d="M1407 919 c7 -7 15 -10 18 -7 3 3 -2 9 -12 12 -14 6 -15 5 -6 -5z"/>
<path d="M1532 916 c7 -8 15 -12 17 -11 5 6 -10 25 -20 25 -5 0 -4 -6 3 -14z"/>
<path d="M623 906 c-3 -5 -1 -6 5 -2 7 4 12 2 12 -3 0 -6 7 -11 15 -11 8 0 15
6 15 14 0 16 -38 18 -47 2z"/>
<path d="M549 903 c-16 -2 -29 -12 -32 -24 -4 -16 -2 -19 13 -14 10 3 28 8 39
10 27 5 41 14 41 26 0 9 -12 9 -61 2z m41 -7 c0 -3 -4 -8 -10 -11 -5 -3 -10
-1 -10 4 0 6 5 11 10 11 6 0 10 -2 10 -4z m-33 -12 c-3 -3 -12 -4 -19 -1 -8 3
-5 6 6 6 11 1 17 -2 13 -5z"/>
<path d="M1640 898 c0 -4 7 -8 15 -8 8 0 15 4 15 8 0 5 -7 9 -15 9 -8 0 -15
-4 -15 -9z"/>
<path d="M1706 889 c3 -5 9 -7 14 -4 4 3 11 0 13 -5 3 -6 4 -5 3 1 -1 7 -10
13 -19 15 -9 1 -15 -2 -11 -7z"/>
<path d="M798 861 c-43 -4 -80 -10 -83 -13 -3 -3 20 -29 51 -57 173 -158 430
-188 629 -72 53 31 145 107 145 121 0 9 -42 17 -152 26 -55 4 -78 3 -78 -5 0
-7 22 -11 60 -11 33 0 60 -4 60 -9 0 -4 -12 -20 -27 -35 -20 -20 -34 -25 -57
-23 -17 3 -23 2 -13 0 33 -8 17 -23 -20 -19 -21 2 -30 1 -20 -1 9 -2 17 -9 17
-15 0 -6 -10 -8 -26 -4 -55 14 -117 16 -132 4 -11 -10 -17 -9 -27 5 -17 23
-30 21 -49 -8 -16 -24 -18 -24 -41 -9 -15 10 -34 14 -49 10 -14 -3 -27 -2 -30
3 -3 5 13 11 36 15 22 4 38 9 35 13 -4 3 -27 0 -52 -6 -25 -6 -51 -8 -58 -4
-8 5 -1 10 18 15 24 6 21 7 -12 4 -45 -4 -69 10 -31 17 16 3 15 4 -5 2 -15 -1
-34 6 -44 17 -15 17 -13 18 49 18 46 0 69 4 78 15 11 13 5 15 -41 13 -30 0
-89 -4 -131 -7z m12 -51 c0 -5 -4 -10 -10 -10 -5 0 -10 5 -10 10 0 6 5 10 10
10 6 0 10 -4 10 -10z m660 0 c0 -5 -4 -10 -10 -10 -5 0 -10 5 -10 10 0 6 5 10
10 10 6 0 10 -4 10 -10z m-612 -41 c-2 -6 -8 -10 -13 -10 -5 0 -11 4 -13 10
-2 6 4 11 13 11 9 0 15 -5 13 -11z m567 1 c3 -5 -1 -10 -9 -10 -9 0 -16 5 -16
10 0 6 4 10 9 10 6 0 13 -4 16 -10z m-505 -42 c0 -5 -9 -8 -20 -8 -18 0 -19 3
-9 21 9 17 13 19 20 8 5 -8 9 -17 9 -21z m450 7 c0 -8 -6 -15 -14 -15 -17 0
-28 14 -19 24 12 12 33 6 33 -9z m-382 -18 c16 -11 6 -27 -18 -27 -12 0 -18 7
-17 19 1 19 12 22 35 8z m312 -7 c0 -21 -24 -28 -35 -10 -8 14 3 30 21 30 8 0
14 -9 14 -20z m-138 -11 c-1 -8 4 -6 13 6 14 17 17 18 25 5 17 -27 10 -36 -30
-37 -42 -2 -48 4 -27 26 10 11 10 13 0 7 -7 -4 -13 -2 -13 4 0 6 8 10 18 8 9
-2 16 -11 14 -19z"/>
<path d="M1170 855 c0 -11 6 -12 30 -4 17 6 30 12 30 13 0 2 -13 3 -30 4 -19
0 -30 -4 -30 -13z"/>
<path d="M1268 853 c6 -2 18 -2 25 0 6 3 1 5 -13 5 -14 0 -19 -2 -12 -5z"/>
<path d="M1790 836 c0 -24 17 -28 23 -6 3 13 0 20 -9 20 -8 0 -14 -6 -14 -14z"/>
<path d="M656 804 c70 -91 203 -177 324 -209 72 -19 220 -19 295 0 121 32 223
95 306 188 62 72 40 67 -29 -5 -117 -122 -256 -182 -422 -182 -175 0 -318 64
-439 196 -51 56 -74 64 -35 12z"/>
<path d="M958 813 c7 -3 16 -2 19 1 4 3 -2 6 -13 5 -11 0 -14 -3 -6 -6z"/>
<path d="M1321 816 c2 -2 18 -6 34 -10 22 -5 26 -4 15 4 -14 9 -59 15 -49 6z"/>
<path d="M1223 803 c9 -2 23 -2 30 0 6 3 -1 5 -18 5 -16 0 -22 -2 -12 -5z"/>
<path d="M978 793 c6 -2 18 -2 25 0 6 3 1 5 -13 5 -14 0 -19 -2 -12 -5z"/>
<path d="M1745 790 c-8 -13 5 -13 25 0 13 8 13 10 -2 10 -9 0 -20 -4 -23 -10z"/>
<path d="M1223 773 c9 -2 23 -2 30 0 6 3 -1 5 -18 5 -16 0 -22 -2 -12 -5z"/>
<path d="M720 686 c0 -2 7 -7 16 -10 8 -3 12 -2 9 4 -6 10 -25 14 -25 6z"/>
<path d="M1125 500 c-3 -5 -2 -10 4 -10 5 0 13 5 16 10 3 6 2 10 -4 10 -5 0
-13 -4 -16 -10z"/>
<path d="M857 1243 c-4 -3 -7 -17 -7 -30 0 -35 34 -26 38 10 3 26 -14 37 -31
20z"/>
<path d="M1450 1215 c0 -28 4 -35 20 -35 15 0 20 7 20 29 0 17 -6 31 -16 35
-24 9 -24 9 -24 -29z"/>
<path d="M286 1200 c-9 -46 -8 -50 9 -50 17 0 21 46 6 68 -6 10 -10 4 -15 -18z"/>
</g>
</svg>
